# xmcd
#
# Track frame offsets:
#       225
#       16090
#       31080
#       47930
#       69942
#       88540
#       101190
#       112645
#       126605
#       142682
#       157650
#       175382
#
# Disc length: 2529 seconds
#
# Revision: 2
# Processed by: cddbd v1.5.1PL2 Copyright (c) Steve Scherf et al.
# Submitted via: WaveLab 4.01
#
DISCID=8d09de0c
DTITLE=John Mellencamp - Big Daddy
DYEAR=1989
DGENRE=
TTITLE0=Big Daddy of Them All
TTITLE1=To Live
TTITLE2=Martha Say
TTITLE3=Theo and Weird Henry
TTITLE4=Jackie Brown
TTITLE5=Pop Singer
TTITLE6=Void in My Heart
TTITLE7=Mansions in Heaven
TTITLE8=Sometimes a Great Notion
TTITLE9=Country Gentleman
TTITLE10=J.M.'s Question
TTITLE11=Let It All Hang Out
EXTD=
EXTT0=
EXTT1=
EXTT2=
EXTT3=
EXTT4=
EXTT5=
EXTT6=
EXTT7=
EXTT8=
EXTT9=
EXTT10=
EXTT11=
PLAYORDER=
